# Blender v2.71 (sub 0) OBJ File: 'HealthPack_01.blend'
# www.blender.org
mtllib HealthPack.mtl
o Cube.004
v -0.750000 -1.000000 0.750000
v -0.750000 -0.750000 1.000000
v -1.000000 -0.750000 0.750000
v -1.000000 -0.750000 -0.750000
v -0.750000 -0.750000 -1.000000
v -0.750000 -1.000000 -0.750000
v 0.750000 -0.750000 -1.000000
v 1.000000 -0.750000 -0.750000
v 0.750000 -1.000000 -0.750000
v 1.000000 -0.750000 0.750000
v 0.750000 -0.750000 1.000000
v 0.750000 -1.000000 0.750000
v -1.000000 0.750000 0.750000
v -0.750000 0.750000 1.000000
v -0.750000 1.000000 0.750000
v -1.000000 0.750000 -0.750000
v -0.750000 1.000000 -0.750000
v -0.750000 0.750000 -1.000000
v 0.750000 0.750000 -1.000000
v 0.750000 1.000000 -0.750000
v 1.000000 0.750000 -0.750000
v 1.000000 0.750000 0.750000
v 0.750000 1.000000 0.750000
v 0.750000 0.750000 1.000000
vt 0.086620 0.909532
vt 0.089151 0.689792
vt 0.308736 0.685565
vt 0.306205 0.905304
vt 0.405723 0.348492
vt 0.411581 0.133466
vt 0.642243 0.113367
vt 0.642243 0.367620
vt 0.302467 0.089618
vt 0.309337 0.330411
vt 0.068544 0.337280
vt 0.061675 0.096488
vt 0.070164 0.394036
vt 0.310956 0.387166
vt 0.317826 0.627958
vt 0.077034 0.634828
vt 0.696137 0.365169
vt 0.696137 0.129929
vt 0.931376 0.129929
vt 0.931376 0.365169
vt 0.077530 0.967138
vt 0.031653 0.921294
vt 0.031653 0.680178
vt 0.363703 0.673802
vt 0.363703 0.914918
vt 0.318322 0.960268
vt 0.469468 0.736693
vt 0.456715 0.790747
vt 0.416148 0.745321
vt 0.475327 0.521668
vt 0.419066 0.513163
vt 0.461091 0.467732
vt 0.392970 0.402546
vt 0.352403 0.357119
vt 0.355321 0.124961
vt 0.397346 0.079530
vt 0.700668 0.813322
vt 0.705989 0.755822
vt 0.700219 0.441347
vt 0.705989 0.501569
vt 0.636922 0.425121
vt 0.636474 0.053145
vt 0.060055 0.039732
vt 0.300848 0.032862
vn -0.341600 -0.875600 0.341600
vn -0.341600 -0.875600 -0.341600
vn 0.341600 -0.875600 -0.341600
vn 0.341600 -0.875600 0.341600
vn 0.875600 0.341600 -0.341600
vn 0.875600 0.341600 0.341600
vn 0.875600 -0.341600 0.341600
vn 0.875600 -0.341600 -0.341600
vn 0.341600 0.875600 0.341600
vn 0.341600 0.875600 -0.341600
vn -0.341600 0.875600 -0.341600
vn -0.341600 0.875600 0.341600
vn -0.341600 0.341600 -0.875600
vn 0.341600 0.341600 -0.875600
vn 0.341600 -0.341600 -0.875600
vn -0.341600 -0.341600 -0.875600
vn 0.341600 0.341600 0.875600
vn -0.341600 0.341600 0.875600
vn -0.341600 -0.341600 0.875600
vn 0.341600 -0.341600 0.875600
vn -0.875600 -0.341600 0.341600
vn -0.875600 -0.341600 -0.341600
vn -0.875600 0.341600 0.341600
vn -0.875600 0.341600 -0.341600
usemtl None
s 1
f 1/1/1 6/2/2 9/3/3 12/4/4
f 21/5/5 22/6/6 10/7/7 8/8/8
f 23/9/9 20/10/10 17/11/11 15/12/12
f 18/13/13 19/14/14 7/15/15 5/16/16
f 24/17/17 14/18/18 2/19/19 11/20/20
f 1/1/1 2/21/19 3/22/21
f 4/23/22 5/16/16 6/2/2
f 7/15/15 8/24/8 9/3/3
f 10/25/7 11/26/20 12/4/4
f 13/27/23 14/28/18 15/29/12
f 16/30/24 17/31/11 18/32/13
f 19/33/14 20/34/10 21/5/5
f 22/6/6 23/35/9 24/36/17
f 2/37/19 14/28/18 13/27/23 3/38/21
f 15/29/12 17/31/11 16/30/24 13/27/23
f 18/32/13 5/39/16 4/40/22 16/30/24
f 6/2/2 1/1/1 3/22/21 4/23/22
f 17/11/11 20/10/10 19/14/14 18/13/13
f 21/5/5 8/8/8 7/41/15 19/33/14
f 9/3/3 6/2/2 5/16/16 7/15/15
f 20/34/10 23/35/9 22/6/6 21/5/5
f 24/36/17 11/42/20 10/7/7 22/6/6
f 12/4/4 9/3/3 8/24/8 10/25/7
f 23/9/9 15/12/12 14/43/18 24/44/17
f 1/1/1 12/4/4 11/26/20 2/21/19
f 13/27/23 16/30/24 4/40/22 3/38/21
