# Blender v2.71 (sub 0) OBJ File: ''
# www.blender.org
mtllib Mine.mtl
o Cylinder
v 0.000000 -0.100000 -1.000000
v 0.000000 0.100000 -1.000000
v 0.382683 -0.100000 -0.923880
v 0.382683 0.100000 -0.923880
v 0.707107 -0.100000 -0.707107
v 0.707107 0.100000 -0.707107
v 0.923880 -0.100000 -0.382683
v 0.923880 0.100000 -0.382683
v 1.000000 -0.100000 0.000000
v 1.000000 0.100000 0.000000
v 0.923880 -0.100000 0.382684
v 0.923880 0.100000 0.382684
v 0.707107 -0.100000 0.707107
v 0.707107 0.100000 0.707107
v 0.382683 -0.100000 0.923880
v 0.382683 0.100000 0.923880
v 0.000000 -0.100000 1.000000
v 0.000000 0.100000 1.000000
v -0.382683 -0.100000 0.923880
v -0.382683 0.100000 0.923880
v -0.707107 -0.100000 0.707107
v -0.707107 0.100000 0.707107
v -0.923880 -0.100000 0.382684
v -0.923880 0.100000 0.382684
v -1.000000 -0.100000 -0.000000
v -1.000000 0.100000 -0.000000
v -0.923879 -0.100000 -0.382684
v -0.923879 0.100000 -0.382684
v -0.707107 -0.100000 -0.707107
v -0.707107 0.100000 -0.707107
v -0.382683 -0.100000 -0.923880
v -0.382683 0.100000 -0.923880
v 0.180617 0.274855 -0.436048
v -0.000000 0.274855 -0.471975
v 0.333737 0.274855 -0.333737
v 0.436048 0.274855 -0.180617
v 0.471975 0.274855 0.000000
v 0.436048 0.274855 0.180617
v 0.333737 0.274855 0.333737
v 0.180617 0.274855 0.436048
v 0.000000 0.274855 0.471975
v -0.180617 0.274855 0.436048
v -0.333737 0.274855 0.333737
v -0.436048 0.274855 0.180617
v -0.471975 0.274855 0.000000
v -0.436048 0.274855 -0.180617
v -0.333737 0.274855 -0.333737
v -0.180617 0.274855 -0.436049
v 0.000000 -0.100000 -1.000000
v 0.382683 -0.100000 -0.923880
v 0.382683 0.100000 -0.923880
v 0.000000 0.100000 -1.000000
v 0.707107 -0.100000 -0.707107
v 0.707107 0.100000 -0.707107
v 0.923880 -0.100000 -0.382683
v 0.923880 0.100000 -0.382683
v 1.000000 -0.100000 0.000000
v 1.000000 0.100000 0.000000
v 0.923880 -0.100000 0.382684
v 0.923880 0.100000 0.382684
v 0.707107 -0.100000 0.707107
v 0.707107 0.100000 0.707107
v 0.382683 -0.100000 0.923880
v 0.382683 0.100000 0.923880
v 0.000000 -0.100000 1.000000
v 0.000000 0.100000 1.000000
v -0.382683 -0.100000 0.923880
v -0.382683 0.100000 0.923880
v -0.707107 -0.100000 0.707107
v -0.707107 0.100000 0.707107
v -0.923880 -0.100000 0.382684
v -0.923880 0.100000 0.382684
v -1.000000 -0.100000 -0.000000
v -1.000000 0.100000 -0.000000
v -0.923879 -0.100000 -0.382684
v -0.923879 0.100000 -0.382684
v -0.707107 -0.100000 -0.707107
v -0.707107 0.100000 -0.707107
v -0.382683 -0.100000 -0.923880
v -0.382683 0.100000 -0.923880
vt 0.495124 0.634304
vt 0.550225 0.634303
vt 0.550225 0.662547
vt 0.605326 0.634303
vt 0.605326 0.662547
vt 0.660429 0.634304
vt 0.660428 0.662549
vt 0.715534 0.634306
vt 0.715532 0.662552
vt 0.770640 0.634310
vt 0.825748 0.634314
vt 0.825745 0.662562
vt 0.880856 0.634320
vt 0.880853 0.662567
vt 0.935964 0.634325
vt 0.935961 0.662572
vt 0.054305 0.634327
vt 0.109408 0.634324
vt 0.109409 0.662569
vt 0.164510 0.634320
vt 0.164512 0.662565
vt 0.219614 0.634316
vt 0.219615 0.662561
vt 0.274716 0.634313
vt 0.274718 0.662558
vt 0.329819 0.634310
vt 0.329820 0.662555
vt 0.384921 0.634308
vt 0.384922 0.662552
vt 0.156322 0.333568
vt 0.156403 0.291253
vt 0.172664 0.252239
vt 0.440023 0.634305
vt 0.495124 0.662548
vt 0.440024 0.662549
vt 0.801801 0.085549
vt 0.885633 0.120273
vt 0.949795 0.184435
vt 0.322965 0.222971
vt 0.394394 0.115321
vt 0.459972 0.180873
vt 0.283964 0.206626
vt 0.308736 0.079877
vt 0.241698 0.206459
vt 0.216063 0.079933
vt 0.202620 0.222464
vt 0.130499 0.115447
vt 0.065065 0.180981
vt 0.029683 0.266534
vt 0.029660 0.359085
vt 0.172226 0.372734
vt 0.065007 0.444707
vt 0.201927 0.402789
vt 0.130443 0.510315
vt 0.240885 0.419155
vt 0.216030 0.545873
vt 0.283150 0.419338
vt 0.308725 0.545941
vt 0.322276 0.403309
vt 0.394393 0.510501
vt 0.352295 0.373510
vt 0.459972 0.444951
vt 0.368630 0.334480
vt 0.495467 0.359281
vt 0.368791 0.292164
vt 0.495467 0.266545
vt 0.352754 0.253007
vt 0.770638 0.662557
vt 0.054306 0.662572
vt 0.984519 0.268267
vt 0.984519 0.359006
vt 0.949795 0.442837
vt 0.885633 0.506999
vt 0.801801 0.541723
vt 0.711062 0.541723
vt 0.563069 0.442837
vt 0.627231 0.506999
vt 0.528345 0.359006
vt 0.528345 0.268267
vt 0.563069 0.184435
vt 0.627231 0.120273
vt 0.711063 0.085549
vn 0.000000 0.000000 -1.000000
vn 0.382700 0.000000 -0.923900
vn 0.707100 0.000000 -0.707100
vn 0.923900 0.000000 -0.382700
vn 1.000000 0.000000 -0.000000
vn 0.923900 0.000000 0.382700
vn 0.707100 0.000000 0.707100
vn 0.382700 0.000000 0.923900
vn 0.000000 0.000000 1.000000
vn -0.382700 0.000000 0.923900
vn -0.707100 0.000000 0.707100
vn -0.923900 0.000000 0.382700
vn -1.000000 0.000000 -0.000000
vn -0.923900 0.000000 -0.382700
vn -0.707100 0.000000 -0.707100
vn 0.068300 0.983900 0.164900
vn 0.126200 0.983900 0.126200
vn 0.164900 0.983900 0.068300
vn -0.382700 0.000000 -0.923900
vn 0.000000 -1.000000 0.000000
vn 0.068300 0.983900 -0.164900
vn 0.120300 0.949300 -0.290400
vn 0.000000 0.949300 -0.314400
vn 0.126200 0.983900 -0.126200
vn 0.222300 0.949300 -0.222300
vn 0.164900 0.983900 -0.068300
vn 0.290400 0.949300 -0.120300
vn 0.178500 0.983900 0.000000
vn 0.314400 0.949300 0.000000
vn 0.290400 0.949300 0.120300
vn 0.222300 0.949300 0.222300
vn 0.120300 0.949300 0.290400
vn 0.000000 0.983900 0.178500
vn 0.000000 0.949300 0.314400
vn -0.068300 0.983900 0.164900
vn -0.120300 0.949300 0.290400
vn -0.126200 0.983900 0.126200
vn -0.222300 0.949300 0.222300
vn -0.164900 0.983900 0.068300
vn -0.290400 0.949300 0.120300
vn -0.178500 0.983900 0.000000
vn -0.314400 0.949300 -0.000000
vn -0.164900 0.983900 -0.068300
vn -0.290400 0.949300 -0.120300
vn -0.126200 0.983900 -0.126200
vn -0.222300 0.949300 -0.222300
vn -0.068300 0.983900 -0.164900
vn -0.120300 0.949300 -0.290400
vn 0.000000 0.983900 -0.178500
usemtl Bake
s 1
f 2/1/1 4/2/2 3/3/2
f 4/2/2 6/4/3 5/5/3
f 6/4/3 8/6/4 7/7/4
f 7/7/4 8/6/4 10/8/5
f 9/9/5 10/8/5 12/10/6
f 12/10/6 14/11/7 13/12/7
f 14/11/7 16/13/8 15/14/8
f 16/13/8 18/15/9 17/16/9
f 18/17/9 20/18/10 19/19/10
f 20/18/10 22/20/11 21/21/11
f 22/20/11 24/22/12 23/23/12
f 24/22/12 26/24/13 25/25/13
f 26/24/13 28/26/14 27/27/14
f 28/26/14 30/28/15 77/29/15
f 40/30/16 39/31/17 38/32/18
f 32/33/19 2/1/1 1/34/1
f 30/28/15 32/33/19 79/35/19
f 75/36/20 29/37/20 31/38/20
f 33/39/21 51/40/22 52/41/23
f 35/42/24 54/43/25 51/40/22
f 36/44/26 56/45/27 54/43/25
f 37/46/28 58/47/29 56/45/27
f 38/32/18 60/48/30 58/47/29
f 38/32/18 39/31/17 62/49/31
f 40/30/16 64/50/32 62/49/31
f 41/51/33 66/52/34 64/50/32
f 42/53/35 68/54/36 66/52/34
f 43/55/37 70/56/38 68/54/36
f 44/57/39 72/58/40 70/56/38
f 45/59/41 74/60/42 72/58/40
f 45/59/41 46/61/43 76/62/44
f 47/63/45 78/64/46 76/62/44
f 47/63/45 48/65/47 80/66/48
f 34/67/49 52/41/23 80/66/48
f 1/34/1 2/1/1 3/3/2
f 3/3/2 4/2/2 5/5/3
f 5/5/3 6/4/3 7/7/4
f 9/9/5 7/7/4 10/8/5
f 11/68/6 9/9/5 12/10/6
f 11/68/6 12/10/6 13/12/7
f 13/12/7 14/11/7 15/14/8
f 15/14/8 16/13/8 17/16/9
f 17/69/9 18/17/9 19/19/10
f 19/19/10 20/18/10 21/21/11
f 21/21/11 22/20/11 23/23/12
f 23/23/12 24/22/12 25/25/13
f 25/25/13 26/24/13 27/27/14
f 27/27/14 28/26/14 77/29/15
f 34/67/49 47/63/45 33/39/21
f 34/67/49 48/65/47 47/63/45
f 47/63/45 46/61/43 45/59/41
f 45/59/41 44/57/39 43/55/37
f 41/51/33 40/30/16 42/53/35
f 40/30/16 38/32/18 47/63/45
f 40/30/16 43/55/37 42/53/35
f 35/42/24 38/32/18 36/44/26
f 38/32/18 35/42/24 47/63/45
f 47/63/45 45/59/41 43/55/37
f 77/29/15 30/28/15 79/35/19
f 38/32/18 37/46/28 36/44/26
f 43/55/37 40/30/16 47/63/45
f 79/35/19 32/33/19 1/34/1
f 47/63/45 35/42/24 33/39/21
f 31/38/20 49/70/20 50/71/20
f 50/71/20 53/72/20 55/73/20
f 55/73/20 57/74/20 59/75/20
f 63/76/20 55/73/20 61/77/20
f 63/76/20 65/78/20 67/79/20
f 67/79/20 69/80/20 71/81/20
f 71/81/20 73/82/20 75/36/20
f 34/67/49 33/39/21 52/41/23
f 55/73/20 71/81/20 50/71/20
f 33/39/21 35/42/24 51/40/22
f 71/81/20 55/73/20 67/79/20
f 71/81/20 75/36/20 31/38/20
f 55/73/20 59/75/20 61/77/20
f 71/81/20 31/38/20 50/71/20
f 55/73/20 63/76/20 67/79/20
f 35/42/24 36/44/26 54/43/25
f 36/44/26 37/46/28 56/45/27
f 37/46/28 38/32/18 58/47/29
f 60/48/30 38/32/18 62/49/31
f 39/31/17 40/30/16 62/49/31
f 40/30/16 41/51/33 64/50/32
f 41/51/33 42/53/35 66/52/34
f 42/53/35 43/55/37 68/54/36
f 43/55/37 44/57/39 70/56/38
f 44/57/39 45/59/41 72/58/40
f 74/60/42 45/59/41 76/62/44
f 46/61/43 47/63/45 76/62/44
f 78/64/46 47/63/45 80/66/48
f 48/65/47 34/67/49 80/66/48
